# xmcd CD database file
#
# Track frame offsets:
#	150
#	13767
#	33142
#	52067
#	75515
#	93025
#	101087
#	124542
#	152885
#	172252
#	178385
#	196305
#
# Disc length: 2928 seconds
#
# Revision: 0
# Processed by: cddbd v1.5.1PL0 Copyright (c) Steve Scherf et al.
# Submitted via: CDex 1.50
#
DISCID=980b6e0c
DTITLE=AL DI MEOLA - A Collection
DYEAR=1900
DGENRE=Jazz
TTITLE0=Black cat shuffle
TTITLE1=Calliope
TTITLE2=Cruisin'
TTITLE3=Fantasia Suite
TTITLE4=God bird change
TTITLE5=Lady of Rome, sister of Brazil
TTITLE6=Mediterranean sundance
TTITLE7=Race with a devil on spanish highway
TTITLE8=Ritmo de la noche
TTITLE9=Sarabande
TTITLE10=Scenario
TTITLE11=Spanish eyes
EXTD=
EXTT0=
EXTT1=
EXTT2=
EXTT3=
EXTT4=
EXTT5=
EXTT6=
EXTT7=
EXTT8=
EXTT9=
EXTT10=
EXTT11=
PLAYORDER=
